<svg width="100" height="100" viewBox="0 0 100 100" fill="none" xmlns="http://www.w3.org/2000/svg">
<rect width="100" height="100" rx="50" fill="#992C2C"/>
<rect x="1" y="1" width="98" height="98" rx="49" fill="white"/>
<path d="M98 49.9589C98 76.4458 76.5097 97.9178 50 97.9178C23.4903 97.9178 2 76.4458 2 49.9589C2 23.4719 23.4903 2 50 2C76.5097 2 98 23.4719 98 49.9589Z" fill="#363030"/>
<path d="M30.1825 17.8258C29.91 17.9786 29.651 18.0492 29.4055 18.0376C29.1575 18.0214 28.9232 17.9498 28.7025 17.8228C28.4839 17.6886 28.28 17.5223 28.0909 17.3238C27.9038 17.1182 27.7349 16.9024 27.5842 16.6764C27.4309 16.4459 27.2968 16.2285 27.1821 16.0241C27.0648 15.8152 26.9477 15.5853 26.8308 15.3344C26.7158 15.0764 26.6193 14.814 26.5412 14.5473C26.4677 14.278 26.4329 14.0139 26.4368 13.7549C26.4408 13.4959 26.5004 13.2564 26.6159 13.0365C26.7358 12.8139 26.9344 12.6249 27.2115 12.4695C27.4795 12.3192 27.7352 12.2534 27.9787 12.2722C28.2267 12.2883 28.4613 12.3658 28.6825 12.5045C28.9011 12.6386 29.104 12.8085 29.2911 13.0141C29.4782 13.2197 29.6484 13.4377 29.8017 13.6682C29.9524 13.8942 30.0839 14.1071 30.1961 14.3069C30.3108 14.5113 30.4267 14.7389 30.5436 14.9898C30.6606 15.2407 30.7558 15.5008 30.8293 15.7701C30.9049 16.0323 30.9407 16.2929 30.9367 16.5519C30.9373 16.8083 30.8799 17.0465 30.7645 17.2665C30.6491 17.4865 30.4551 17.6729 30.1825 17.8258ZM29.8575 17.2467C30.0301 17.1499 30.1416 17.0187 30.192 16.8531C30.2469 16.685 30.2603 16.5013 30.2321 16.3021C30.2039 16.103 30.1512 15.9026 30.0739 15.7011C29.9986 15.4926 29.9148 15.3007 29.8224 15.1256C29.7321 14.9434 29.655 14.7955 29.5913 14.6819C29.525 14.5639 29.4376 14.4188 29.3291 14.2468C29.2251 14.0722 29.1037 13.8985 28.9648 13.7255C28.8279 13.5455 28.6782 13.3906 28.5158 13.2608C28.3553 13.1239 28.1889 13.035 28.0167 12.9943C27.8465 12.9464 27.6728 12.9722 27.4957 13.0715C27.323 13.1683 27.2128 13.3018 27.165 13.472C27.1146 13.6376 27.106 13.8245 27.1393 14.0327C27.1701 14.2364 27.2253 14.4413 27.3052 14.6473C27.385 14.8534 27.4701 15.0475 27.5604 15.2297C27.6528 15.4048 27.7308 15.5492 27.7945 15.6627C27.8583 15.7763 27.9421 15.9203 28.0461 16.0949C28.1521 16.2624 28.2722 16.4339 28.4066 16.6093C28.5455 16.7822 28.6939 16.9349 28.8518 17.0673C29.0097 17.1996 29.1725 17.2875 29.3402 17.3308C29.5124 17.3715 29.6848 17.3435 29.8575 17.2467Z" fill="white"/>
<path d="M34.476 15.5058L31.658 12.1323L32.3252 11.8649L34.5274 14.6267L34.2179 11.1064L34.8851 10.839L35.1794 15.2239L34.476 15.5058Z" fill="white"/>
<path d="M40.0212 13.5725C39.6023 13.6792 39.2397 13.6693 38.9334 13.5431C38.6271 13.4168 38.3754 13.2095 38.1783 12.921C37.9799 12.6276 37.8325 12.2916 37.7361 11.9131C37.6692 11.6506 37.632 11.3887 37.6245 11.1272C37.6221 10.8645 37.6589 10.6187 37.7349 10.3897C37.8147 10.1544 37.9433 9.9524 38.1206 9.78364C38.2967 9.60983 38.5362 9.48439 38.839 9.4073C39.1671 9.32379 39.4678 9.32251 39.741 9.40344C40.0129 9.47933 40.2575 9.64817 40.4747 9.90998C40.5572 10.0018 40.633 10.1303 40.7019 10.2955C40.7696 10.4557 40.8304 10.6202 40.8842 10.7893C40.943 10.957 40.9904 11.1008 41.0263 11.2207L38.4143 11.8855C38.4873 12.1088 38.5824 12.3237 38.6996 12.5304C38.8154 12.732 38.9652 12.8874 39.1489 12.9965C39.3376 13.1043 39.5682 13.1235 39.8408 13.0541C40.1184 12.9835 40.3041 12.8475 40.398 12.6463C40.4918 12.445 40.5268 12.2131 40.5028 11.9505L41.1842 11.777C41.2318 12.2379 41.1659 12.6228 40.9867 12.9318C40.8074 13.2407 40.4856 13.4543 40.0212 13.5725ZM38.298 11.3024L40.1908 10.8207C40.123 10.6391 40.0357 10.4759 39.929 10.331C39.826 10.1799 39.696 10.0706 39.539 10.003C39.3871 9.93421 39.2027 9.92742 38.9856 9.98267C38.7736 10.0366 38.6155 10.1333 38.5113 10.2727C38.4058 10.407 38.3383 10.564 38.3088 10.7435C38.2843 10.9217 38.2807 11.108 38.298 11.3024Z" fill="white"/>
<path d="M43.4082 12.6112L42.9099 8.46135L43.5693 8.38226L43.655 9.09589C43.7931 8.84851 43.965 8.64167 44.1706 8.47538C44.3808 8.30329 44.628 8.20019 44.9125 8.16608C45.3624 8.11212 45.6959 8.20325 45.9131 8.43948C46.1297 8.67054 46.2632 8.9955 46.3134 9.41437L46.6506 12.2223L45.9912 12.3014L45.6625 9.56327C45.6352 9.33573 45.5647 9.14222 45.4512 8.98274C45.3376 8.82325 45.1515 8.75902 44.893 8.79003C44.6758 8.81608 44.4783 8.89747 44.3006 9.03418C44.123 9.1709 43.9858 9.33947 43.8892 9.5399C43.792 9.73516 43.7568 9.94397 43.7835 10.1663L44.0675 12.5321L43.4082 12.6112Z" fill="white"/>
<path d="M54.1766 12.1059C53.8657 12.0747 53.6131 11.9838 53.4188 11.8335C53.2251 11.6779 53.0744 11.4848 52.9667 11.2541C52.8648 11.0188 52.7934 10.7656 52.7526 10.4945C52.7176 10.2188 52.7032 9.94514 52.7096 9.67359C52.7165 9.39685 52.7317 9.14188 52.7551 8.90868C52.7791 8.6703 52.8153 8.41483 52.8636 8.14225C52.9177 7.86502 52.9894 7.59479 53.0787 7.33157C53.1732 7.06886 53.2964 6.83261 53.4484 6.62279C53.6003 6.41298 53.7867 6.25112 54.0076 6.13722C54.2336 6.02383 54.5047 5.98302 54.8208 6.01479C55.1265 6.04552 55.3737 6.13841 55.5622 6.29346C55.756 6.44902 55.9036 6.64707 56.005 6.88758C56.107 7.12291 56.1755 7.37844 56.2106 7.65417C56.2456 7.92989 56.2597 8.20612 56.2528 8.48286C56.2464 8.75441 56.2318 9.0042 56.2088 9.23222C56.1854 9.46541 56.1495 9.7183 56.1011 9.99087C56.0528 10.2634 55.9813 10.5311 55.8869 10.7938C55.7981 11.0518 55.6777 11.2858 55.5257 11.4956C55.3789 11.7059 55.1951 11.868 54.9743 11.9819C54.7534 12.0958 54.4876 12.1372 54.1766 12.1059ZM54.2431 11.4452C54.44 11.465 54.6067 11.4215 54.743 11.3148C54.8846 11.2087 55.001 11.0659 55.0923 10.8867C55.1836 10.7074 55.2555 10.5131 55.308 10.3038C55.3662 10.0898 55.4078 9.88455 55.4327 9.68815C55.4634 9.48708 55.4853 9.32177 55.4983 9.19222C55.5119 9.05748 55.5237 8.88854 55.5336 8.68539C55.5488 8.48277 55.5492 8.27081 55.5348 8.04951C55.5261 7.82355 55.4925 7.6108 55.4341 7.41124C55.3814 7.20703 55.2962 7.03882 55.1786 6.90661C55.0668 6.76974 54.9098 6.69114 54.7077 6.67083C54.5108 6.65104 54.3439 6.69708 54.207 6.80896C54.0706 6.91565 53.9562 7.06381 53.8639 7.25344C53.772 7.43789 53.6996 7.63738 53.6466 7.8519C53.5936 8.06643 53.5518 8.27423 53.5211 8.47529C53.4961 8.67169 53.4771 8.83467 53.4641 8.96422C53.451 9.09378 53.4369 9.25987 53.4218 9.46249C53.4123 9.66046 53.4122 9.86983 53.4214 10.0906C53.4358 10.3119 53.4696 10.5221 53.5229 10.7211C53.5761 10.9201 53.659 11.0855 53.7714 11.2172C53.8889 11.3494 54.0462 11.4254 54.2431 11.4452Z" fill="white"/>
<path d="M57.619 13.3534L58.8005 8.31831L59.447 8.46986L59.3096 9.05552C59.4929 8.88986 59.6889 8.77264 59.8976 8.70388C60.1126 8.63124 60.3444 8.62404 60.5928 8.68228C60.8565 8.74409 61.0691 8.85276 61.2305 9.00829C61.392 9.16382 61.509 9.34907 61.5816 9.56402C61.6554 9.7739 61.6934 9.99946 61.6957 10.2407C61.6991 10.4769 61.6741 10.7091 61.6205 10.9373C61.5622 11.1857 61.4836 11.4294 61.3848 11.6684C61.2871 11.9023 61.1612 12.1081 61.0071 12.286C60.8581 12.465 60.673 12.5928 60.4517 12.6694C60.2368 12.742 59.9771 12.7427 59.6729 12.6714C59.4346 12.6155 59.2309 12.5143 59.062 12.3677C58.8994 12.2172 58.7666 12.0309 58.6635 11.8089L58.2656 13.505L57.619 13.3534ZM59.7418 12.0696C59.9295 12.1136 60.0892 12.1056 60.221 12.0455C60.3578 11.9867 60.4702 11.8953 60.5581 11.7715C60.6523 11.6438 60.7279 11.5037 60.7851 11.3513C60.8435 11.1938 60.8899 11.0415 60.9244 10.8944C60.9601 10.7423 60.9849 10.5796 60.9988 10.4064C61.0178 10.2343 61.0135 10.0701 60.9859 9.91387C60.9596 9.75256 60.8963 9.612 60.796 9.49221C60.7008 9.3736 60.5543 9.29111 60.3565 9.24476C60.1436 9.19483 59.9448 9.20976 59.7602 9.28954C59.5819 9.36543 59.4283 9.48455 59.2992 9.64688C59.1764 9.80534 59.0913 9.98598 59.0437 10.1888L58.9116 10.7516C58.864 10.9545 58.8694 11.1483 58.9276 11.3331C58.9871 11.5129 59.0867 11.67 59.2263 11.8044C59.3722 11.9349 59.5441 12.0233 59.7418 12.0696Z" fill="white"/>
<path d="M64.754 14.2838C64.3498 14.1306 64.0587 13.9143 63.8805 13.6351C63.7024 13.3559 63.6155 13.0417 63.62 12.6924C63.6262 12.3383 63.6987 11.9787 63.8373 11.6134C63.9334 11.3602 64.0535 11.1245 64.1977 10.9062C64.3467 10.6898 64.5181 10.5097 64.7119 10.3659C64.9125 10.2192 65.1338 10.1277 65.376 10.0914C65.6201 10.0502 65.8882 10.085 66.1804 10.1958C66.4969 10.3159 66.7438 10.4874 66.9209 10.7106C67.0999 10.9288 67.203 11.2075 67.2303 11.5465C67.2451 11.669 67.2332 11.8177 67.1947 11.9925C67.1581 12.1624 67.1132 12.332 67.0601 12.5013C67.0119 12.6724 66.968 12.8173 66.9285 12.936L64.4083 11.9804C64.3398 12.205 64.294 12.4356 64.2712 12.672C64.2501 12.9035 64.2834 13.1167 64.3711 13.3114C64.4636 13.508 64.6413 13.6562 64.9043 13.7559C65.1721 13.8575 65.4023 13.8529 65.5948 13.742C65.7873 13.6312 65.9492 13.4614 66.0806 13.2327L66.738 13.482C66.512 13.8865 66.2369 14.1638 65.9126 14.3137C65.5883 14.4637 65.2021 14.4537 64.754 14.2838ZM64.6483 11.4363L66.4745 12.1288C66.5234 11.9413 66.5458 11.7576 66.5416 11.5778C66.5442 11.3949 66.5006 11.2308 66.411 11.0854C66.3262 10.9418 66.1791 10.8303 65.9697 10.7509C65.7651 10.6734 65.5801 10.6617 65.4147 10.716C65.2511 10.7653 65.1057 10.855 64.9783 10.985C64.8559 11.1168 64.7459 11.2673 64.6483 11.4363Z" fill="white"/>
<path d="M68.6311 15.7386L70.6095 12.0568L71.1946 12.3709L70.9173 12.887C71.1814 12.7806 71.4402 12.7392 71.6935 12.7628C71.9493 12.7819 72.2024 12.8557 72.4527 12.9841L72.1309 13.5829L72.0552 13.5422C71.9038 13.4609 71.746 13.3969 71.5819 13.3502C71.4178 13.3035 71.255 13.2929 71.0934 13.3185C70.9343 13.3395 70.783 13.412 70.6395 13.536C70.6131 13.5631 70.5782 13.6006 70.5349 13.6482C70.494 13.6913 70.4649 13.7289 70.4476 13.761L69.2162 16.0527L68.6311 15.7386Z" fill="white"/>
<path d="M73.9251 18.8102C73.7393 18.6761 73.592 18.5153 73.4833 18.3278C73.3776 18.136 73.3265 17.9354 73.33 17.726C73.3334 17.5165 73.4068 17.3126 73.5501 17.1141C73.7178 16.8819 73.9035 16.7269 74.1074 16.6491C74.3113 16.5714 74.5239 16.5482 74.7454 16.5795C74.97 16.6066 75.191 16.6697 75.4086 16.7688C75.6334 16.8667 75.846 16.9815 76.0464 17.1132C76.2541 17.2438 76.4424 17.37 76.6114 17.4918C76.7455 17.306 76.8399 17.1397 76.8945 16.9929C76.9564 16.8449 76.9574 16.7011 76.8975 16.5616C76.8419 16.4251 76.7063 16.2792 76.4909 16.1238C76.3346 16.0111 76.175 15.9474 76.0122 15.9327C75.8566 15.9168 75.7019 15.9754 75.548 16.1085L74.8764 15.624C75.0851 15.415 75.2995 15.2871 75.5196 15.2403C75.7397 15.1935 75.9619 15.2061 76.1862 15.278C76.4105 15.3498 76.6325 15.465 76.8522 15.6234C77.2492 15.9098 77.4869 16.2257 77.5652 16.5711C77.6507 16.9153 77.5456 17.2923 77.2499 17.7019L75.6173 19.9632L75.0977 19.5885L75.4681 19.0754C75.1941 19.1346 74.9254 19.1464 74.6622 19.1106C74.4031 19.0779 74.1575 18.9778 73.9251 18.8102ZM74.2762 18.3506C74.5635 18.5578 74.8913 18.6465 75.2596 18.6168C75.3771 18.6052 75.5096 18.5819 75.6569 18.5469C75.8115 18.5107 75.9269 18.4399 76.0032 18.3343L76.3324 17.8782C76.2195 17.8032 76.0882 17.7182 75.9385 17.623C75.7918 17.5237 75.6354 17.4333 75.4693 17.352C75.3062 17.2665 75.1415 17.2055 74.9751 17.169C74.8087 17.1325 74.6488 17.136 74.4954 17.1794C74.3493 17.2217 74.2198 17.321 74.107 17.4772C73.985 17.6461 73.9416 17.8042 73.9766 17.9515C74.0116 18.0987 74.1115 18.2318 74.2762 18.3506Z" fill="white"/>
<circle cx="10" cy="47.9178" r="1" fill="white"/>
<circle cx="10" cy="47.9178" r="1" fill="white"/>
<circle cx="10" cy="47.9178" r="1" fill="white"/>
<circle cx="10" cy="47.9178" r="1" fill="white"/>
<path d="M80.4687 64.8971C80.4687 80.3497 66.7085 92.8765 49.7344 92.8765C32.7602 92.8765 19 80.3497 19 64.8971C19 49.4445 32.7602 36.9178 49.7344 36.9178C66.7085 36.9178 80.4687 49.4445 80.4687 64.8971Z" fill="#363030"/>
<path d="M33.0705 88.3905L35.5655 84.6808L36.5668 85.1807C36.6682 85.2313 36.7756 85.2937 36.8892 85.3677C37.0085 85.4402 37.1138 85.5231 37.2052 85.6164C37.2987 85.7064 37.3599 85.8062 37.3888 85.9159C37.4704 86.2251 37.4141 86.5239 37.2201 86.8124C37.0697 87.036 36.9126 87.2001 36.749 87.3046C36.5875 87.4058 36.4217 87.4615 36.2514 87.4718C36.0846 87.4837 35.9128 87.4651 35.7359 87.4157C35.5612 87.3631 35.3836 87.2939 35.2032 87.2082C35.0285 87.1209 34.8502 87.0319 34.6685 86.9412L33.5371 88.6235L33.0705 88.3905ZM34.9366 86.5425L35.4451 86.7964C35.5989 86.8732 35.7524 86.926 35.9057 86.9549C36.059 86.9839 36.2064 86.973 36.3478 86.9224C36.4892 86.8718 36.6144 86.7654 36.7234 86.6033C36.839 86.4315 36.8901 86.2861 36.8769 86.1669C36.8659 86.0445 36.809 85.9381 36.7063 85.8479C36.6058 85.7544 36.4752 85.6675 36.3144 85.5873L35.764 85.3124L34.9366 86.5425Z" fill="#FEFEFE"/>
<path d="M38.106 90.7349L39.9374 86.6116L40.4442 86.7775L38.6127 90.9007L38.106 90.7349Z" fill="#FEFEFE"/>
<path d="M41.6532 91.8233L41.7772 91.2987L44.5271 88.3344L42.6213 88.0081L42.7359 87.5234L45.2193 87.9487L45.0952 88.4733L42.3164 91.4326L44.332 91.7778L44.2174 92.2625L41.6532 91.8233Z" fill="#FEFEFE"/>
<path d="M46.3575 92.5713L46.3804 92.0327L48.5216 88.6949L46.5886 88.6448L46.6097 88.1472L49.1284 88.2124L49.1056 88.751L46.9351 92.0881L48.9793 92.141L48.9582 92.6386L46.3575 92.5713Z" fill="#FEFEFE"/>
<path d="M51.2204 92.6023L50.5594 88.2222L53.1079 87.9197L53.1822 88.4122L51.1516 88.6532L51.3632 90.0553L53.068 89.8529L53.1423 90.3454L51.4375 90.5477L51.664 92.0483L53.6946 91.8073L53.769 92.2998L51.2204 92.6023Z" fill="#FEFEFE"/>
<path d="M56.1142 91.9182L54.6152 87.7063L55.78 87.3899C56.0364 87.3203 56.2738 87.2962 56.4922 87.3176C56.7093 87.3353 56.8989 87.4089 57.0607 87.5385C57.2264 87.6671 57.357 87.8657 57.4526 88.1343C57.5561 88.4251 57.5511 88.6726 57.4378 88.8769C57.3245 89.0812 57.1414 89.252 56.8885 89.3893C56.9983 89.3958 57.1051 89.4173 57.209 89.4536C57.3153 89.4853 57.41 89.5363 57.4929 89.6066C57.5923 89.6885 57.6915 89.7988 57.7904 89.9374C57.8894 90.076 57.9859 90.2253 58.0801 90.3854C58.1743 90.5455 58.2653 90.7024 58.3531 90.8561C58.4395 91.0062 58.5188 91.136 58.5909 91.2456L58.0367 91.3961C57.9489 91.2423 57.863 91.0881 57.779 90.9333C57.6988 90.7775 57.6154 90.6246 57.5289 90.4746C57.4566 90.3409 57.364 90.2086 57.2513 90.0778C57.1373 89.9433 57.0073 89.8393 56.8613 89.766C56.7191 89.6916 56.5612 89.678 56.3878 89.7251L55.9298 89.8494L56.6174 91.7815L56.1142 91.9182ZM55.7707 89.4023L56.24 89.2749C56.4134 89.2278 56.5639 89.1627 56.6914 89.0796C56.8227 88.9955 56.9127 88.8883 56.9615 88.7581C57.0139 88.6268 57.0061 88.4654 56.938 88.2741C56.8778 88.1048 56.7917 87.9849 56.6798 87.9144C56.5666 87.8402 56.4393 87.8021 56.2981 87.8001C56.1568 87.7981 56.0108 87.8176 55.86 87.8586L55.2776 88.0167L55.7707 89.4023Z" fill="#FEFEFE"/>
<path d="M61.5451 90.1229L59.2876 86.2166L59.7762 86.0032L62.0337 89.9095L61.5451 90.1229Z" fill="#FEFEFE"/>
<path d="M64.7059 88.5676L62.708 84.4963L63.1551 84.2167L66.9812 87.1447L66.5341 87.4243L65.4599 86.569L64.5558 87.1344L65.153 88.288L64.7059 88.5676ZM64.3441 86.7258L65.0794 86.266L63.4338 84.96L64.3441 86.7258Z" fill="#FEFEFE"/>
<circle cx="89" cy="47.9178" r="1" fill="#FEFEFE"/>
<path d="M37.01 35.3078H37.758C37.758 35.5278 37.7507 35.8138 37.736 36.1658C37.7213 36.5178 37.692 36.8771 37.648 37.2438C37.604 37.6104 37.5527 37.9624 37.494 38.2998C37.4353 38.6224 37.3767 38.8718 37.318 39.0478H31.29L30.894 42.1938H32.72C33.512 42.1938 34.2307 42.3038 34.876 42.5238C35.5213 42.7291 36.0713 43.0371 36.526 43.4478C36.9807 43.8438 37.3327 44.3351 37.582 44.9218C37.8313 45.4938 37.956 46.1538 37.956 46.9018C37.956 47.7378 37.7947 48.4858 37.472 49.1458C37.164 49.7911 36.7387 50.3411 36.196 50.7958C35.6533 51.2358 35.0153 51.5804 34.282 51.8298C33.5487 52.0644 32.7567 52.1818 31.906 52.1818C31.0553 52.1818 30.278 52.0498 29.574 51.7858C28.87 51.5071 28.3053 51.1991 27.88 50.8618L28.804 48.6838H29.442C29.5447 48.7864 29.662 48.9184 29.794 49.0798C29.926 49.2411 30.0653 49.4098 30.212 49.5858C30.3587 49.7618 30.498 49.9378 30.63 50.1138C30.762 50.2898 30.8793 50.4438 30.982 50.5758C31.1287 50.6344 31.2607 50.6784 31.378 50.7078C31.51 50.7371 31.6787 50.7518 31.884 50.7518C32.324 50.7518 32.7347 50.6784 33.116 50.5318C33.4973 50.3704 33.82 50.1504 34.084 49.8718C34.3627 49.5931 34.5827 49.2631 34.744 48.8818C34.9053 48.4858 34.986 48.0531 34.986 47.5838C34.986 47.0704 34.8833 46.6231 34.678 46.2418C34.4873 45.8458 34.2233 45.5231 33.886 45.2738C33.5487 45.0244 33.1527 44.8411 32.698 44.7238C32.2433 44.5918 31.7667 44.5258 31.268 44.5258L29.354 44.5478L30.234 36.5178H35.976L37.01 35.3078ZM43.6855 44.2178C43.6855 42.8978 43.8248 41.7464 44.1035 40.7638C44.3968 39.7664 44.7928 38.9378 45.2915 38.2778C45.8048 37.6031 46.4061 37.0971 47.0955 36.7598C47.7995 36.4224 48.5621 36.2538 49.3835 36.2538C51.1435 36.2538 52.5368 36.9211 53.5635 38.2558C54.5901 39.5758 55.1035 41.5631 55.1035 44.2178C55.1035 45.5378 54.9568 46.6964 54.6635 47.6938C54.3848 48.6764 53.9815 49.5051 53.4535 50.1798C52.9401 50.8398 52.3241 51.3384 51.6055 51.6758C50.8868 52.0131 50.1021 52.1818 49.2515 52.1818C48.3568 52.1818 47.5648 52.0058 46.8755 51.6538C46.1861 51.2871 45.5995 50.7664 45.1155 50.0918C44.6461 49.4024 44.2868 48.5664 44.0375 47.5838C43.8028 46.6011 43.6855 45.4791 43.6855 44.2178ZM46.9855 44.2178C46.9855 45.2738 47.0148 46.2198 47.0735 47.0558C47.1468 47.8918 47.2715 48.6031 47.4475 49.1898C47.6235 49.7618 47.8508 50.2018 48.1295 50.5098C48.4228 50.8178 48.7895 50.9718 49.2295 50.9718C49.7428 50.9718 50.1608 50.8471 50.4835 50.5978C50.8208 50.3484 51.0848 49.9524 51.2755 49.4098C51.4808 48.8671 51.6201 48.1704 51.6935 47.3198C51.7668 46.4691 51.8035 45.4351 51.8035 44.2178C51.8035 43.1618 51.7741 42.2158 51.7155 41.3798C51.6568 40.5438 51.5395 39.8398 51.3635 39.2678C51.2021 38.6811 50.9601 38.2338 50.6375 37.9258C50.3295 37.6178 49.9115 37.4638 49.3835 37.4638C48.9141 37.4638 48.5255 37.5884 48.2175 37.8378C47.9095 38.0871 47.6601 38.4831 47.4695 39.0258C47.2935 39.5684 47.1688 40.2724 47.0955 41.1378C47.0221 41.9884 46.9855 43.0151 46.9855 44.2178ZM59.8649 44.2178C59.8649 42.8978 60.0042 41.7464 60.2829 40.7638C60.5762 39.7664 60.9722 38.9378 61.4709 38.2778C61.9842 37.6031 62.5856 37.0971 63.2749 36.7598C63.9789 36.4224 64.7416 36.2538 65.5629 36.2538C67.3229 36.2538 68.7162 36.9211 69.7429 38.2558C70.7696 39.5758 71.2829 41.5631 71.2829 44.2178C71.2829 45.5378 71.1362 46.6964 70.8429 47.6938C70.5642 48.6764 70.1609 49.5051 69.6329 50.1798C69.1196 50.8398 68.5036 51.3384 67.7849 51.6758C67.0662 52.0131 66.2816 52.1818 65.4309 52.1818C64.5362 52.1818 63.7442 52.0058 63.0549 51.6538C62.3656 51.2871 61.7789 50.7664 61.2949 50.0918C60.8256 49.4024 60.4662 48.5664 60.2169 47.5838C59.9822 46.6011 59.8649 45.4791 59.8649 44.2178ZM63.1649 44.2178C63.1649 45.2738 63.1942 46.2198 63.2529 47.0558C63.3262 47.8918 63.4509 48.6031 63.6269 49.1898C63.8029 49.7618 64.0302 50.2018 64.3089 50.5098C64.6022 50.8178 64.9689 50.9718 65.4089 50.9718C65.9222 50.9718 66.3402 50.8471 66.6629 50.5978C67.0002 50.3484 67.2642 49.9524 67.4549 49.4098C67.6602 48.8671 67.7996 48.1704 67.8729 47.3198C67.9462 46.4691 67.9829 45.4351 67.9829 44.2178C67.9829 43.1618 67.9536 42.2158 67.8949 41.3798C67.8362 40.5438 67.7189 39.8398 67.5429 39.2678C67.3816 38.6811 67.1396 38.2338 66.8169 37.9258C66.5089 37.6178 66.0909 37.4638 65.5629 37.4638C65.0936 37.4638 64.7049 37.5884 64.3969 37.8378C64.0889 38.0871 63.8396 38.4831 63.6489 39.0258C63.4729 39.5684 63.3482 40.2724 63.2749 41.1378C63.2016 41.9884 63.1649 43.0151 63.1649 44.2178Z" fill="#CE1E1E"/>
<circle cx="71.5" cy="30.4178" r="2.5" fill="#CE1E1E"/>
<circle cx="71.5" cy="30.4178" r="1.5" fill="#363030"/>
<path d="M24.836 67.6308C24.7927 67.8214 24.7147 68.0034 24.602 68.1768C24.4893 68.3501 24.355 68.5061 24.199 68.6448C24.043 68.7748 23.8653 68.8788 23.666 68.9568C23.4667 69.0348 23.2543 69.0738 23.029 69.0738C22.171 69.0738 21.5167 68.8051 21.066 68.2678C20.624 67.7218 20.403 66.8898 20.403 65.7718C20.403 65.1998 20.481 64.7014 20.637 64.2768C20.793 63.8434 21.0097 63.4794 21.287 63.1848C21.573 62.8901 21.9153 62.6691 22.314 62.5218C22.7127 62.3744 23.1547 62.3008 23.64 62.3008C23.796 62.3008 23.926 62.3051 24.03 62.3138C24.1427 62.3224 24.2423 62.3354 24.329 62.3528C24.4243 62.3614 24.511 62.3831 24.589 62.4178C24.6757 62.4438 24.771 62.4741 24.875 62.5088V60.2208L23.887 60.1168V59.6098C24.0083 59.5578 24.173 59.5101 24.381 59.4668C24.5977 59.4234 24.823 59.3844 25.057 59.3498C25.291 59.3064 25.5207 59.2674 25.746 59.2328C25.9713 59.1981 26.1577 59.1678 26.305 59.1418H26.747V67.9948L27.605 68.0988V68.5538C27.4837 68.6144 27.3277 68.6708 27.137 68.7228C26.9463 68.7748 26.747 68.8224 26.539 68.8658C26.331 68.9091 26.1273 68.9438 25.928 68.9698C25.7373 69.0044 25.577 69.0304 25.447 69.0478H25.005L24.888 67.6308H24.836ZM23.653 68.0338C23.9563 68.0338 24.212 67.9384 24.42 67.7478C24.628 67.5571 24.7797 67.2321 24.875 66.7728V63.2758C24.7623 63.2064 24.6193 63.1501 24.446 63.1068C24.2813 63.0634 24.0733 63.0418 23.822 63.0418C23.3193 63.0418 22.9597 63.2714 22.743 63.7308C22.5263 64.1814 22.418 64.8401 22.418 65.7068C22.418 66.4088 22.5133 66.9721 22.704 67.3968C22.8947 67.8214 23.211 68.0338 23.653 68.0338ZM36.3102 67.8258C36.2409 67.9731 36.1282 68.1248 35.9722 68.2808C35.8249 68.4281 35.6386 68.5624 35.4132 68.6838C35.1966 68.7964 34.9409 68.8874 34.6462 68.9568C34.3602 69.0348 34.0482 69.0738 33.7102 69.0738C33.1729 69.0738 32.6962 68.9958 32.2802 68.8398C31.8642 68.6751 31.5176 68.4454 31.2402 68.1508C30.9629 67.8474 30.7506 67.4878 30.6032 67.0718C30.4646 66.6558 30.3952 66.1878 30.3952 65.6678C30.3952 64.5584 30.6856 63.7134 31.2662 63.1328C31.8469 62.5521 32.6529 62.2618 33.6842 62.2618C34.1262 62.2618 34.5379 62.3224 34.9192 62.4438C35.3092 62.5651 35.6299 62.7644 35.8812 63.0418C36.1412 63.3191 36.3189 63.6831 36.4142 64.1338C36.5182 64.5844 36.5139 65.1348 36.4012 65.7848H32.4102C32.4189 66.4694 32.5922 67.0154 32.9302 67.4228C33.2769 67.8301 33.7839 68.0338 34.4512 68.0338C34.7372 68.0338 35.0319 67.9904 35.3352 67.9038C35.6472 67.8171 35.8899 67.7044 36.0632 67.5658L36.3102 67.8258ZM33.6322 63.0028C33.4589 63.0028 33.3029 63.0331 33.1642 63.0938C33.0342 63.1544 32.9172 63.2671 32.8132 63.4318C32.7179 63.5878 32.6399 63.8044 32.5792 64.0818C32.5186 64.3504 32.4752 64.6928 32.4492 65.1088H34.5422C34.6029 64.4328 34.5639 63.9128 34.4252 63.5488C34.2866 63.1848 34.0222 63.0028 33.6322 63.0028ZM42.6166 62.2618C43.18 62.2618 43.648 62.3224 44.0206 62.4438C44.3933 62.5564 44.675 62.6994 44.8656 62.8728C45.273 62.4308 45.741 62.1231 46.2696 61.9498C46.3303 61.9931 46.391 62.0581 46.4516 62.1448C46.5123 62.2228 46.5643 62.3094 46.6076 62.4048C46.651 62.5001 46.6856 62.5954 46.7116 62.6908C46.7376 62.7861 46.7506 62.8641 46.7506 62.9248L46.5816 63.2368H45.2166C45.312 63.3581 45.3986 63.5184 45.4766 63.7178C45.5633 63.9084 45.6066 64.1381 45.6066 64.4068C45.6066 64.6928 45.546 64.9614 45.4246 65.2128C45.3033 65.4641 45.117 65.6894 44.8656 65.8888C44.623 66.0794 44.311 66.2311 43.9296 66.3438C43.557 66.4564 43.1193 66.5128 42.6166 66.5128C42.4693 66.5128 42.335 66.5128 42.2136 66.5128C42.101 66.5041 42.0013 66.4911 41.9146 66.4738C41.88 66.5258 41.841 66.5908 41.7976 66.6688C41.763 66.7381 41.7456 66.8074 41.7456 66.8768C41.7456 67.0241 41.8496 67.1411 42.0576 67.2278C42.2656 67.3144 42.53 67.3924 42.8506 67.4618C43.1713 67.5311 43.5136 67.6091 43.8776 67.6958C44.2503 67.7824 44.597 67.8994 44.9176 68.0468C45.2383 68.1854 45.507 68.3718 45.7236 68.6058C45.9403 68.8311 46.053 69.1258 46.0616 69.4898C46.0703 69.8364 45.9836 70.1441 45.8016 70.4128C45.6196 70.6814 45.3683 70.9068 45.0476 71.0888C44.7356 71.2794 44.363 71.4224 43.9296 71.5178C43.505 71.6218 43.05 71.6738 42.5646 71.6738C41.9926 71.6738 41.503 71.6261 41.0956 71.5308C40.697 71.4441 40.372 71.3228 40.1206 71.1668C39.8693 71.0108 39.683 70.8331 39.5616 70.6338C39.449 70.4344 39.3926 70.2264 39.3926 70.0098C39.3926 69.7671 39.4403 69.5591 39.5356 69.3858C39.631 69.2124 39.7653 69.0608 39.9386 68.9308C40.112 68.8008 40.3113 68.6924 40.5366 68.6058C40.7706 68.5191 41.0263 68.4411 41.3036 68.3718C41.1736 68.3371 41.048 68.2938 40.9266 68.2418C40.8053 68.1898 40.697 68.1291 40.6016 68.0598C40.5063 67.9818 40.4283 67.8951 40.3676 67.7998C40.307 67.6958 40.2766 67.5788 40.2766 67.4488C40.2766 67.3361 40.3113 67.2278 40.3806 67.1238C40.45 67.0111 40.541 66.9114 40.6536 66.8248C40.7663 66.7294 40.8876 66.6471 41.0176 66.5778C41.1476 66.4998 41.2776 66.4348 41.4076 66.3828C40.8616 66.2614 40.4283 66.0274 40.1076 65.6808C39.787 65.3254 39.6266 64.8748 39.6266 64.3288C39.6266 63.6788 39.8953 63.1718 40.4326 62.8078C40.97 62.4438 41.698 62.2618 42.6166 62.2618ZM44.2546 69.9058C44.2546 69.6718 44.181 69.4811 44.0336 69.3338C43.895 69.1951 43.713 69.0781 43.4876 68.9828C43.2623 68.8961 43.0066 68.8224 42.7206 68.7618C42.4433 68.6924 42.166 68.6144 41.8886 68.5278C41.6633 68.7011 41.503 68.8744 41.4076 69.0478C41.3123 69.2211 41.2646 69.4291 41.2646 69.6718C41.2646 70.0704 41.399 70.3781 41.6676 70.5948C41.945 70.8201 42.3306 70.9328 42.8246 70.9328C43.31 70.9328 43.6696 70.8288 43.9036 70.6208C44.1376 70.4214 44.2546 70.1831 44.2546 69.9058ZM41.4986 64.3938C41.4986 64.8444 41.5723 65.1868 41.7196 65.4208C41.8756 65.6548 42.1746 65.7718 42.6166 65.7718C43.0413 65.7718 43.3316 65.6548 43.4876 65.4208C43.6523 65.1781 43.7346 64.8358 43.7346 64.3938C43.7346 63.9258 43.6523 63.5791 43.4876 63.3538C43.323 63.1198 43.0326 63.0028 42.6166 63.0028C42.1833 63.0028 41.8886 63.1154 41.7326 63.3408C41.5766 63.5661 41.4986 63.9171 41.4986 64.3938ZM52.5025 63.9128C52.3985 63.9648 52.2772 64.0514 52.1385 64.1728C51.9999 64.2941 51.8742 64.4934 51.7615 64.7708V68.0988C51.9349 68.1161 52.1082 68.1508 52.2815 68.2028C52.4549 68.2461 52.6282 68.3154 52.8015 68.4108V68.9178H49.0315V68.4108C49.1875 68.3241 49.3349 68.2591 49.4735 68.2158C49.6122 68.1724 49.7509 68.1334 49.8895 68.0988V63.3408L49.0315 63.2368V62.7298C49.1702 62.6691 49.3392 62.6128 49.5385 62.5608C49.7465 62.5088 49.9589 62.4654 50.1755 62.4308C50.3922 62.3874 50.6002 62.3528 50.7995 62.3268C51.0075 62.3008 51.1809 62.2791 51.3195 62.2618H51.7615V63.9908H51.8135C51.8829 63.8001 51.9825 63.6008 52.1125 63.3928C52.2512 63.1848 52.4115 62.9941 52.5935 62.8208C52.7755 62.6474 52.9749 62.5088 53.1915 62.4048C53.4082 62.3008 53.6335 62.2531 53.8675 62.2618C53.9629 62.3831 54.0452 62.5564 54.1145 62.7818C54.1839 62.9984 54.2402 63.2064 54.2835 63.4058V63.9128H52.5025ZM62.8592 67.8258C62.7898 67.9731 62.6772 68.1248 62.5212 68.2808C62.3738 68.4281 62.1875 68.5624 61.9622 68.6838C61.7455 68.7964 61.4898 68.8874 61.1952 68.9568C60.9092 69.0348 60.5972 69.0738 60.2592 69.0738C59.7218 69.0738 59.2452 68.9958 58.8292 68.8398C58.4132 68.6751 58.0665 68.4454 57.7892 68.1508C57.5118 67.8474 57.2995 67.4878 57.1522 67.0718C57.0135 66.6558 56.9442 66.1878 56.9442 65.6678C56.9442 64.5584 57.2345 63.7134 57.8152 63.1328C58.3958 62.5521 59.2018 62.2618 60.2332 62.2618C60.6752 62.2618 61.0868 62.3224 61.4682 62.4438C61.8582 62.5651 62.1788 62.7644 62.4302 63.0418C62.6902 63.3191 62.8678 63.6831 62.9632 64.1338C63.0672 64.5844 63.0628 65.1348 62.9502 65.7848H58.9592C58.9678 66.4694 59.1412 67.0154 59.4792 67.4228C59.8258 67.8301 60.3328 68.0338 61.0002 68.0338C61.2862 68.0338 61.5808 67.9904 61.8842 67.9038C62.1962 67.8171 62.4388 67.7044 62.6122 67.5658L62.8592 67.8258ZM60.1812 63.0028C60.0078 63.0028 59.8518 63.0331 59.7132 63.0938C59.5832 63.1544 59.4662 63.2671 59.3622 63.4318C59.2668 63.5878 59.1888 63.8044 59.1282 64.0818C59.0675 64.3504 59.0242 64.6928 58.9982 65.1088H61.0912C61.1518 64.4328 61.1128 63.9128 60.9742 63.5488C60.8355 63.1848 60.5712 63.0028 60.1812 63.0028ZM72.0516 67.8258C71.9823 67.9731 71.8696 68.1248 71.7136 68.2808C71.5663 68.4281 71.3799 68.5624 71.1546 68.6838C70.9379 68.7964 70.6823 68.8874 70.3876 68.9568C70.1016 69.0348 69.7896 69.0738 69.4516 69.0738C68.9143 69.0738 68.4376 68.9958 68.0216 68.8398C67.6056 68.6751 67.2589 68.4454 66.9816 68.1508C66.7043 67.8474 66.4919 67.4878 66.3446 67.0718C66.2059 66.6558 66.1366 66.1878 66.1366 65.6678C66.1366 64.5584 66.4269 63.7134 67.0076 63.1328C67.5883 62.5521 68.3943 62.2618 69.4256 62.2618C69.8676 62.2618 70.2793 62.3224 70.6606 62.4438C71.0506 62.5651 71.3713 62.7644 71.6226 63.0418C71.8826 63.3191 72.0603 63.6831 72.1556 64.1338C72.2596 64.5844 72.2553 65.1348 72.1426 65.7848H68.1516C68.1603 66.4694 68.3336 67.0154 68.6716 67.4228C69.0183 67.8301 69.5253 68.0338 70.1926 68.0338C70.4786 68.0338 70.7733 67.9904 71.0766 67.9038C71.3886 67.8171 71.6313 67.7044 71.8046 67.5658L72.0516 67.8258ZM69.3736 63.0028C69.2003 63.0028 69.0443 63.0331 68.9056 63.0938C68.7756 63.1544 68.6586 63.2671 68.5546 63.4318C68.4593 63.5878 68.3813 63.8044 68.3206 64.0818C68.2599 64.3504 68.2166 64.6928 68.1906 65.1088H70.2836C70.3443 64.4328 70.3053 63.9128 70.1666 63.5488C70.0279 63.1848 69.7636 63.0028 69.3736 63.0028ZM78.67 67.5008C78.67 67.2754 78.5877 67.0804 78.423 66.9158C78.267 66.7511 78.0677 66.5994 77.825 66.4608C77.591 66.3221 77.331 66.1834 77.045 66.0448C76.7677 65.9061 76.5077 65.7458 76.265 65.5638C76.031 65.3731 75.8317 65.1521 75.667 64.9008C75.511 64.6494 75.433 64.3418 75.433 63.9778C75.433 63.7178 75.4937 63.4838 75.615 63.2758C75.7364 63.0591 75.901 62.8771 76.109 62.7298C76.317 62.5824 76.564 62.4698 76.85 62.3918C77.1447 62.3051 77.461 62.2618 77.799 62.2618C78.267 62.2618 78.7004 62.3008 79.099 62.3788C79.5064 62.4481 79.8617 62.5478 80.165 62.6778C80.1304 62.9551 80.061 63.2541 79.957 63.5748C79.853 63.8868 79.7534 64.1728 79.658 64.4328H79.216L78.67 63.1068C78.566 63.0634 78.4577 63.0374 78.345 63.0288C78.2324 63.0114 78.1067 63.0028 77.968 63.0028C77.708 63.0028 77.5087 63.0808 77.37 63.2368C77.24 63.3841 77.175 63.5531 77.175 63.7438C77.175 63.9604 77.253 64.1511 77.409 64.3158C77.5737 64.4718 77.773 64.6191 78.007 64.7578C78.2497 64.8964 78.5097 65.0351 78.787 65.1738C79.073 65.3124 79.333 65.4728 79.567 65.6548C79.8097 65.8281 80.009 66.0361 80.165 66.2788C80.3297 66.5214 80.412 66.8118 80.412 67.1498C80.412 67.7478 80.1694 68.2201 79.684 68.5668C79.1987 68.9048 78.5487 69.0738 77.734 69.0738C77.318 69.0738 76.889 69.0304 76.447 68.9438C76.005 68.8571 75.6237 68.7358 75.303 68.5798C75.3204 68.2678 75.394 67.9514 75.524 67.6308C75.654 67.3101 75.7927 67.0241 75.94 66.7728H76.382L77.019 68.1898C77.1144 68.2591 77.2184 68.3024 77.331 68.3198C77.4524 68.3284 77.565 68.3328 77.669 68.3328C77.9204 68.3328 78.15 68.2591 78.358 68.1118C78.566 67.9644 78.67 67.7608 78.67 67.5008Z" fill="white"/>
</svg>
