<svg width="50" height="50" viewBox="0 0 50 50" fill="none" xmlns="http://www.w3.org/2000/svg">
<rect width="50" height="50" rx="25" fill="#992C2C"/>
<rect x="1" y="1" width="48" height="48" rx="24" fill="white"/>
<path d="M48 25.0313C48 37.7294 37.7025 48.0232 25 48.0232C12.2975 48.0232 2 37.7294 2 25.0313C2 12.3333 12.2975 2.03943 25 2.03943C37.7025 2.03943 48 12.3333 48 25.0313Z" fill="#363030"/>
<path d="M15.2512 8.7304C15.1149 8.80686 14.9854 8.84219 14.8627 8.83638C14.7388 8.82831 14.6216 8.79251 14.5113 8.72898C14.402 8.66191 14.3001 8.57874 14.2056 8.47948C14.1121 8.37667 14.0276 8.26877 13.9523 8.15577C13.8757 8.0405 13.8087 7.93177 13.7514 7.82957C13.6927 7.7251 13.6342 7.61013 13.5757 7.48467C13.5183 7.35566 13.4701 7.22446 13.431 7.09107C13.3943 6.95641 13.3769 6.82432 13.3789 6.69481C13.3809 6.56529 13.4107 6.44552 13.4684 6.3355C13.5284 6.22421 13.6277 6.12969 13.7662 6.05196C13.9002 5.97678 14.0281 5.94386 14.1498 5.95321C14.2737 5.96129 14.391 6 14.5016 6.06934C14.6109 6.13642 14.7123 6.22135 14.8058 6.32416C14.8993 6.42696 14.9844 6.536 15.061 6.65127C15.1364 6.76427 15.2021 6.87073 15.2582 6.97066C15.3155 7.07286 15.3734 7.18669 15.4319 7.31216C15.4903 7.43762 15.5379 7.56769 15.5746 7.70235C15.6124 7.83347 15.6303 7.96378 15.6283 8.0933C15.6286 8.22154 15.5999 8.34067 15.5421 8.45069C15.4844 8.56071 15.3874 8.65395 15.2512 8.7304ZM15.0887 8.44084C15.175 8.39242 15.2308 8.3268 15.256 8.24398C15.2834 8.15989 15.2901 8.06804 15.276 7.96844C15.262 7.86884 15.2356 7.76866 15.197 7.6679C15.1594 7.56359 15.1175 7.46765 15.0713 7.38008C15.0262 7.28896 14.9877 7.21501 14.9558 7.15823C14.9227 7.09918 14.879 7.02665 14.8247 6.94062C14.7728 6.85333 14.7121 6.76644 14.6427 6.67998C14.5742 6.58997 14.4994 6.5125 14.4182 6.44759C14.338 6.37913 14.2548 6.33471 14.1688 6.31433C14.0837 6.29041 13.9968 6.3033 13.9083 6.35299C13.822 6.40142 13.7668 6.46817 13.7429 6.55326C13.7177 6.63608 13.7134 6.72956 13.7301 6.8337C13.7454 6.93557 13.773 7.03802 13.8129 7.14106C13.8528 7.24409 13.8954 7.34116 13.9405 7.43228C13.9867 7.51986 14.0257 7.59204 14.0575 7.64881C14.0894 7.70559 14.1313 7.77763 14.1833 7.86493C14.2362 7.94868 14.2963 8.03443 14.3634 8.12217C14.4329 8.20863 14.507 8.28496 14.586 8.35115C14.6649 8.41734 14.7463 8.46126 14.8301 8.48291C14.9162 8.50329 15.0024 8.48926 15.0887 8.44084Z" fill="white"/>
<path d="M17.2282 7.66091L15.8195 5.97413L16.1531 5.84038L17.2539 7.22131L17.0994 5.46096L17.433 5.32722L17.5798 7.5199L17.2282 7.66091Z" fill="white"/>
<path d="M19.8157 6.76322C19.6062 6.81656 19.4249 6.81167 19.2718 6.74855C19.1187 6.68543 18.9929 6.58177 18.8943 6.43756C18.7952 6.29084 18.7215 6.12283 18.6733 5.93356C18.6398 5.80234 18.6213 5.67136 18.6175 5.54063C18.6163 5.40926 18.6347 5.28633 18.6728 5.17185C18.7127 5.05419 18.777 4.95317 18.8657 4.86877C18.9537 4.78186 19.0734 4.71912 19.2248 4.68056C19.3889 4.63878 19.5392 4.63812 19.6758 4.67858C19.8118 4.71651 19.934 4.80092 20.0426 4.93182C20.0839 4.97775 20.1217 5.04201 20.1562 5.12459C20.19 5.20466 20.2204 5.28695 20.2473 5.37147C20.2767 5.45534 20.3004 5.52724 20.3184 5.58717L19.0124 5.91976C19.0489 6.03139 19.0964 6.13887 19.155 6.2422C19.2129 6.343 19.2878 6.42068 19.3796 6.47523C19.4739 6.52913 19.5892 6.53873 19.7255 6.50403C19.8643 6.46868 19.9572 6.40069 20.0041 6.30006C20.051 6.19942 20.0685 6.08345 20.0566 5.95212L20.3973 5.86536C20.421 6.0958 20.3881 6.28826 20.2984 6.44277C20.2088 6.59728 20.0479 6.70409 19.8157 6.76322ZM18.9543 5.62821L19.9006 5.3872C19.8667 5.2964 19.8231 5.2148 19.7697 5.1424C19.7182 5.06683 19.6533 5.01217 19.5748 4.9784C19.4989 4.944 19.4066 4.94061 19.2981 4.96825C19.1921 4.99524 19.1131 5.04359 19.0609 5.1133C19.0082 5.18048 18.9744 5.25895 18.9597 5.3487C18.9474 5.43781 18.9456 5.53098 18.9543 5.62821Z" fill="white"/>
<path d="M21.3211 6.32633L21.0721 4.25137L21.4017 4.21181L21.4446 4.56863C21.5137 4.44493 21.5996 4.34151 21.7024 4.25835C21.8075 4.1723 21.9311 4.12074 22.0733 4.10368C22.2983 4.07668 22.4651 4.12224 22.5737 4.24035C22.6819 4.35588 22.7486 4.51836 22.7738 4.72779L22.9423 6.13178L22.6126 6.17134L22.4483 4.80226C22.4346 4.68849 22.3994 4.59174 22.3427 4.512C22.2859 4.43226 22.1928 4.40015 22.0636 4.41566C21.955 4.42869 21.8562 4.46939 21.7674 4.53775C21.6786 4.60612 21.61 4.69041 21.5617 4.79063C21.5131 4.88826 21.4955 4.99267 21.5088 5.10385L21.6507 6.28677L21.3211 6.32633Z" fill="white"/>
<path d="M26.3739 6.09164C26.2184 6.076 26.0921 6.03059 25.995 5.95539C25.8981 5.8776 25.8228 5.78104 25.769 5.6657C25.718 5.54803 25.6823 5.42142 25.6619 5.28589C25.6443 5.14803 25.6372 5.01121 25.6403 4.87543C25.6438 4.73706 25.6514 4.60957 25.6631 4.49297C25.6751 4.37378 25.6932 4.24604 25.7173 4.10976C25.7444 3.97114 25.7802 3.83603 25.8248 3.70441C25.8721 3.57306 25.9337 3.45494 26.0096 3.35003C26.0856 3.24513 26.1788 3.1642 26.2892 3.10726C26.4022 3.05057 26.5378 3.03017 26.6958 3.04606C26.8487 3.06143 26.9723 3.10789 27.0666 3.18541C27.1634 3.2632 27.2372 3.36223 27.288 3.48249C27.3389 3.60016 27.3732 3.72793 27.3908 3.86579C27.4083 4.00366 27.4154 4.14177 27.4119 4.28014C27.4087 4.41592 27.4014 4.54082 27.3899 4.65483C27.3782 4.77142 27.3603 4.89787 27.3361 5.03415C27.3119 5.17044 27.2762 5.30426 27.229 5.43561C27.1846 5.56463 27.1244 5.68159 27.0484 5.78649C26.9751 5.89166 26.8832 5.97272 26.7727 6.02966C26.6623 6.08661 26.5294 6.10727 26.3739 6.09164ZM26.4071 5.76127C26.5056 5.77117 26.5889 5.74945 26.6571 5.69611C26.7279 5.64302 26.7861 5.57167 26.8317 5.48204C26.8774 5.3924 26.9133 5.29525 26.9395 5.19058C26.9686 5.08358 26.9894 4.98097 27.0019 4.88277C27.0172 4.78224 27.0282 4.69959 27.0347 4.63481C27.0415 4.56744 27.0473 4.48297 27.0523 4.3814C27.0599 4.28008 27.0601 4.1741 27.0529 4.06345C27.0485 3.95047 27.0317 3.84409 27.0025 3.74431C26.9761 3.6422 26.9336 3.55809 26.8748 3.49198C26.8188 3.42354 26.7404 3.38425 26.6393 3.37408C26.5408 3.36418 26.4574 3.3872 26.389 3.44313C26.3208 3.49648 26.2636 3.57056 26.2174 3.66537C26.1715 3.75759 26.1353 3.85734 26.1088 3.9646C26.0823 4.07186 26.0614 4.17576 26.0461 4.27629C26.0336 4.37449 26.0241 4.45598 26.0176 4.52076C26.011 4.58554 26.004 4.66858 25.9964 4.7699C25.9917 4.86888 25.9917 4.97357 25.9963 5.08396C26.0035 5.19461 26.0204 5.29969 26.047 5.39921C26.0736 5.49873 26.1151 5.58141 26.1713 5.64726C26.23 5.71337 26.3087 5.75137 26.4071 5.76127Z" fill="white"/>
<path d="M27.9018 6.69237L28.4923 4.17474L28.8155 4.25055L28.7469 4.54338C28.8385 4.46056 28.9365 4.40196 29.0409 4.36759C29.1483 4.33127 29.2642 4.32768 29.3884 4.35682C29.5203 4.38774 29.6266 4.44209 29.7073 4.51986C29.788 4.59764 29.8465 4.69027 29.8828 4.79776C29.9197 4.90271 29.9388 5.0155 29.9399 5.13613C29.9416 5.25423 29.9291 5.37032 29.9024 5.48442C29.8732 5.60865 29.8339 5.7305 29.7845 5.84998C29.7357 5.96692 29.6728 6.06986 29.5958 6.15879C29.5213 6.24831 29.4287 6.3122 29.3181 6.35045C29.2106 6.38677 29.0808 6.38708 28.9287 6.35141C28.8095 6.32346 28.7077 6.27284 28.6233 6.19954C28.5419 6.12429 28.4755 6.03115 28.424 5.92009L28.2251 6.76818L27.9018 6.69237ZM28.9631 6.05055C29.0569 6.07255 29.1368 6.06854 29.2027 6.03852C29.2711 6.00909 29.3273 5.96342 29.3712 5.90151C29.4183 5.83765 29.4561 5.76761 29.4847 5.69139C29.5139 5.61264 29.5371 5.5365 29.5543 5.46298C29.5721 5.38691 29.5845 5.30556 29.5915 5.21892C29.601 5.13288 29.5988 5.05079 29.585 4.97267C29.5719 4.892 29.5402 4.82172 29.49 4.76181C29.4424 4.7025 29.3692 4.66125 29.2703 4.63806C29.1638 4.61309 29.0644 4.62054 28.9722 4.66042C28.883 4.69836 28.8062 4.75792 28.7417 4.83908C28.6803 4.91831 28.6377 5.00863 28.614 5.11004L28.548 5.39147C28.5242 5.49288 28.5269 5.5898 28.556 5.68223C28.5857 5.77213 28.6355 5.85067 28.7054 5.91787C28.7783 5.98313 28.8642 6.02736 28.9631 6.05055Z" fill="white"/>
<path d="M31.2773 7.10886C31.0752 7.03219 30.9296 6.92404 30.8406 6.78441C30.7515 6.64477 30.708 6.48764 30.7102 6.313C30.7133 6.13592 30.7495 5.95608 30.8188 5.77347C30.8669 5.64685 30.9269 5.52898 30.9989 5.41983C31.0734 5.31161 31.1591 5.22156 31.256 5.1497C31.3563 5.07632 31.4669 5.03057 31.588 5.01244C31.71 4.99188 31.844 5.0093 31.9901 5.06473C32.1484 5.12477 32.2718 5.21059 32.3604 5.32218C32.4499 5.43133 32.5015 5.57067 32.5151 5.74019C32.5225 5.80148 32.5166 5.87583 32.4974 5.96323C32.4791 6.0482 32.4566 6.133 32.4301 6.21763C32.406 6.30319 32.3841 6.37564 32.3644 6.435L31.1043 5.95698C31.0701 6.06932 31.0472 6.1846 31.0358 6.30281C31.0253 6.4186 31.0419 6.52519 31.0858 6.62259C31.132 6.72091 31.2209 6.79501 31.3524 6.84489C31.4863 6.89569 31.6014 6.89339 31.6976 6.83798C31.7938 6.78257 31.8748 6.69769 31.9404 6.58334L32.2691 6.70804C32.1562 6.9103 32.0186 7.04891 31.8565 7.12388C31.6944 7.19885 31.5013 7.19384 31.2773 7.10886ZM31.2242 5.68495L32.1373 6.03135C32.1617 5.93756 32.1729 5.84571 32.1708 5.75579C32.1721 5.66435 32.1503 5.58228 32.1055 5.50956C32.0631 5.43777 31.9895 5.38202 31.8848 5.3423C31.7826 5.3035 31.6901 5.29766 31.6074 5.32478C31.5256 5.34946 31.4529 5.39429 31.3892 5.45927C31.328 5.52518 31.273 5.6004 31.2242 5.68495Z" fill="white"/>
<path d="M33.0356 7.76436L34.0245 5.92325L34.317 6.08035L34.1784 6.33845C34.3104 6.28522 34.4398 6.26454 34.5664 6.27639C34.6943 6.28596 34.8208 6.32286 34.9459 6.3871L34.7851 6.6865L34.7473 6.66617C34.6715 6.62551 34.5927 6.59349 34.5106 6.57012C34.4286 6.54675 34.3472 6.54146 34.2664 6.55424C34.1869 6.56474 34.1113 6.60097 34.0395 6.66296C34.0263 6.67655 34.0089 6.69527 33.9872 6.7191C33.9668 6.74064 33.9523 6.75944 33.9436 6.7755L33.3282 7.92146L33.0356 7.76436Z" fill="white"/>
<path d="M35.5084 9.20261C35.4155 9.13556 35.3419 9.05513 35.2876 8.96133C35.2347 8.86541 35.2092 8.76508 35.2109 8.66034C35.2126 8.55561 35.2493 8.45361 35.3209 8.35436C35.4047 8.23821 35.4976 8.16071 35.5995 8.12184C35.7014 8.08298 35.8077 8.07138 35.9184 8.08705C36.0307 8.10061 36.1412 8.13217 36.2499 8.18174C36.3623 8.23072 36.4686 8.28815 36.5688 8.35402C36.6726 8.4193 36.7667 8.48242 36.8512 8.54338C36.9183 8.45046 36.9654 8.36729 36.9927 8.29385C37.0237 8.21983 37.0242 8.14794 36.9942 8.07816C36.9664 8.00991 36.8986 7.93693 36.7909 7.85922C36.7128 7.80283 36.633 7.77097 36.5516 7.76361C36.4739 7.75567 36.3965 7.78496 36.3196 7.85149L35.9838 7.6092C36.0882 7.50466 36.1954 7.44069 36.3054 7.41731C36.4154 7.39392 36.5264 7.40021 36.6386 7.43617C36.7507 7.47213 36.8617 7.52973 36.9715 7.60897C37.17 7.75221 37.2888 7.91021 37.328 8.08295C37.3707 8.25511 37.3182 8.44361 37.1704 8.64845L36.3544 9.77931L36.0946 9.59187L36.2798 9.33529C36.1428 9.36491 36.0085 9.37077 35.8769 9.35288C35.7474 9.33651 35.6246 9.28642 35.5084 9.20261ZM35.6839 8.97277C35.8275 9.0764 35.9914 9.12078 36.1755 9.10593C36.2343 9.10015 36.3005 9.08852 36.3741 9.07101C36.4514 9.05292 36.5091 9.01747 36.5472 8.96468L36.7118 8.73661C36.6554 8.6991 36.5897 8.65655 36.5149 8.60896C36.4415 8.55926 36.3633 8.51408 36.2803 8.47342C36.1988 8.43064 36.1164 8.40012 36.0333 8.38186C35.9501 8.3636 35.8702 8.36533 35.7935 8.38706C35.7204 8.4082 35.6557 8.45784 35.5993 8.53598C35.5383 8.62045 35.5166 8.69951 35.5341 8.77316C35.5516 8.84681 35.6016 8.91334 35.6839 8.97277Z" fill="white"/>
<path d="M44 26.0003C44 37.046 35.4934 46.0003 25 46.0003C14.5066 46.0003 6 37.046 6 26.0003C6 14.9546 14.5066 6.00034 25 6.00034C35.4934 6.00034 44 14.9546 44 26.0003Z" fill="#363030"/>
<path d="M14.5363 42.7217L15.7023 40.8146L16.1797 41.1065C16.2281 41.136 16.2794 41.172 16.3336 41.2143C16.3905 41.256 16.4409 41.3028 16.4847 41.3547C16.5295 41.405 16.559 41.4597 16.5732 41.5188C16.6134 41.6852 16.5881 41.8426 16.4974 41.9909C16.4271 42.1059 16.3534 42.189 16.2763 42.2403C16.2002 42.2899 16.1217 42.3152 16.041 42.3162C15.9619 42.3183 15.8803 42.3038 15.7962 42.273C15.713 42.2405 15.6285 42.1991 15.5425 42.1488C15.4591 42.0978 15.3742 42.0459 15.2875 41.9929L14.7587 42.8577L14.5363 42.7217ZM15.4128 41.7879L15.6553 41.9362C15.7286 41.981 15.8017 42.0131 15.8746 42.0325C15.9474 42.0518 16.0173 42.0499 16.0841 42.0267C16.151 42.0035 16.2099 41.9502 16.2608 41.8669C16.3148 41.7786 16.3384 41.7025 16.3316 41.6388C16.3257 41.5735 16.2983 41.5155 16.2491 41.4648C16.201 41.4125 16.1386 41.3629 16.0619 41.316L15.7995 41.1556L15.4128 41.7879Z" fill="#FEFEFE"/>
<path d="M17.5556 44.4055L18.4088 42.3172L18.6556 42.418L17.8024 44.5063L17.5556 44.4055Z" fill="#FEFEFE"/>
<path d="M19.8964 45.2742L19.9558 45.0113L21.304 43.5768L20.361 43.3638L20.4158 43.1209L21.6446 43.3985L21.5852 43.6614L20.2227 45.0927L21.2201 45.3179L21.1652 45.5608L19.8964 45.2742Z" fill="#FEFEFE"/>
<path d="M22.8234 45.874L22.8387 45.6049L23.9325 43.9681L22.9673 43.9132L22.9814 43.6646L24.2391 43.7362L24.2238 44.0053L23.1154 45.6412L24.1362 45.6993L24.1221 45.9479L22.8234 45.874Z" fill="#FEFEFE"/>
<path d="M25.8511 45.985L25.6089 43.7834L26.8845 43.6432L26.9117 43.8907L25.8953 44.0025L25.9728 44.7072L26.8261 44.6134L26.8533 44.8609L26.0001 44.9547L26.083 45.709L27.0993 45.5972L27.1266 45.8447L25.8511 45.985Z" fill="#FEFEFE"/>
<path d="M28.9168 45.5975L28.3036 43.4479L28.884 43.2824C29.0117 43.246 29.1288 43.2329 29.2353 43.2431C29.3413 43.2515 29.4321 43.2885 29.5077 43.3543C29.5852 43.4195 29.6435 43.5207 29.6826 43.6578C29.7249 43.8062 29.7154 43.9328 29.6539 44.0377C29.5924 44.1425 29.4977 44.2305 29.3697 44.3015C29.4233 44.3045 29.4751 44.3151 29.525 44.3334C29.5762 44.3492 29.6212 44.375 29.6598 44.4107C29.7062 44.4523 29.7516 44.5084 29.7961 44.579C29.8406 44.6496 29.8837 44.7256 29.9252 44.8072C29.9667 44.8888 30.0068 44.9688 30.0454 45.0471C30.0835 45.1236 30.1186 45.1897 30.1508 45.2455L29.8747 45.3243C29.8361 45.2459 29.7984 45.1673 29.7617 45.0884C29.7269 45.009 29.6904 44.9311 29.6523 44.8546C29.6207 44.7864 29.5792 44.7191 29.5277 44.6525C29.4757 44.5841 29.4149 44.5313 29.3454 44.4943C29.2778 44.4567 29.2009 44.4502 29.1145 44.4749L28.8863 44.54L29.1675 45.526L28.9168 45.5975ZM28.8212 44.3118L29.055 44.2451C29.1414 44.2204 29.2171 44.1866 29.282 44.1437C29.3488 44.1003 29.3961 44.0452 29.4237 43.9784C29.4533 43.9111 29.4541 43.8286 29.4262 43.7309C29.4016 43.6445 29.3629 43.5835 29.31 43.5478C29.2567 43.5102 29.1954 43.4911 29.1261 43.4905C29.0569 43.49 28.9848 43.5004 28.9096 43.5218L28.6194 43.6046L28.8212 44.3118Z" fill="#FEFEFE"/>
<path d="M32.228 44.5004L31.263 42.4614L31.5039 42.3474L32.469 44.3864L32.228 44.5004Z" fill="#FEFEFE"/>
<path d="M34.3975 43.4143L33.5541 41.2323L33.7715 41.0832L35.5039 42.6552L35.2865 42.8044L34.8009 42.3452L34.3612 42.6469L34.6149 43.2652L34.3975 43.4143ZM34.2714 42.4279L34.6289 42.1826L33.8849 41.4815L34.2714 42.4279Z" fill="#FEFEFE"/>
<circle cx="4.5" cy="24.5" r="0.5" fill="white"/>
<circle cx="4.5" cy="24.5" r="0.5" fill="white"/>
<circle cx="4.5" cy="24.5" r="0.5" fill="white"/>
<circle cx="4.5" cy="24.5" r="0.5" fill="white"/>
<circle cx="45.5" cy="24.5" r="0.5" fill="#FEFEFE"/>
<path d="M17.46 17.94H17.868C17.868 18.06 17.864 18.216 17.856 18.408C17.848 18.6 17.832 18.796 17.808 18.996C17.784 19.196 17.756 19.388 17.724 19.572C17.692 19.748 17.66 19.884 17.628 19.98H14.34L14.124 21.696H15.12C15.552 21.696 15.944 21.756 16.296 21.876C16.648 21.988 16.948 22.156 17.196 22.38C17.444 22.596 17.636 22.864 17.772 23.184C17.908 23.496 17.976 23.856 17.976 24.264C17.976 24.72 17.888 25.128 17.712 25.488C17.544 25.84 17.312 26.14 17.016 26.388C16.72 26.628 16.372 26.816 15.972 26.952C15.572 27.08 15.14 27.144 14.676 27.144C14.212 27.144 13.788 27.072 13.404 26.928C13.02 26.776 12.712 26.608 12.48 26.424L12.984 25.236H13.332C13.388 25.292 13.452 25.364 13.524 25.452C13.596 25.54 13.672 25.632 13.752 25.728C13.832 25.824 13.908 25.92 13.98 26.016C14.052 26.112 14.116 26.196 14.172 26.268C14.252 26.3 14.324 26.324 14.388 26.34C14.46 26.356 14.552 26.364 14.664 26.364C14.904 26.364 15.128 26.324 15.336 26.244C15.544 26.156 15.72 26.036 15.864 25.884C16.016 25.732 16.136 25.552 16.224 25.344C16.312 25.128 16.356 24.892 16.356 24.636C16.356 24.356 16.3 24.112 16.188 23.904C16.084 23.688 15.94 23.512 15.756 23.376C15.572 23.24 15.356 23.14 15.108 23.076C14.86 23.004 14.6 22.968 14.328 22.968L13.284 22.98L13.764 18.6H16.896L17.46 17.94ZM21.1012 22.8C21.1012 22.08 21.1772 21.452 21.3292 20.916C21.4892 20.372 21.7052 19.92 21.9772 19.56C22.2572 19.192 22.5852 18.916 22.9612 18.732C23.3452 18.548 23.7612 18.456 24.2092 18.456C25.1692 18.456 25.9292 18.82 26.4892 19.548C27.0492 20.268 27.3292 21.352 27.3292 22.8C27.3292 23.52 27.2492 24.152 27.0892 24.696C26.9372 25.232 26.7172 25.684 26.4292 26.052C26.1492 26.412 25.8132 26.684 25.4212 26.868C25.0292 27.052 24.6012 27.144 24.1372 27.144C23.6492 27.144 23.2172 27.048 22.8412 26.856C22.4652 26.656 22.1452 26.372 21.8812 26.004C21.6252 25.628 21.4292 25.172 21.2932 24.636C21.1652 24.1 21.1012 23.488 21.1012 22.8ZM22.9012 22.8C22.9012 23.376 22.9172 23.892 22.9492 24.348C22.9892 24.804 23.0572 25.192 23.1532 25.512C23.2492 25.824 23.3732 26.064 23.5252 26.232C23.6852 26.4 23.8852 26.484 24.1252 26.484C24.4052 26.484 24.6332 26.416 24.8092 26.28C24.9932 26.144 25.1372 25.928 25.2412 25.632C25.3532 25.336 25.4292 24.956 25.4692 24.492C25.5092 24.028 25.5292 23.464 25.5292 22.8C25.5292 22.224 25.5132 21.708 25.4812 21.252C25.4492 20.796 25.3852 20.412 25.2892 20.1C25.2012 19.78 25.0692 19.536 24.8932 19.368C24.7252 19.2 24.4972 19.116 24.2092 19.116C23.9532 19.116 23.7412 19.184 23.5732 19.32C23.4052 19.456 23.2692 19.672 23.1652 19.968C23.0692 20.264 23.0012 20.648 22.9612 21.12C22.9212 21.584 22.9012 22.144 22.9012 22.8ZM29.9263 22.8C29.9263 22.08 30.0023 21.452 30.1543 20.916C30.3143 20.372 30.5303 19.92 30.8023 19.56C31.0823 19.192 31.4103 18.916 31.7863 18.732C32.1703 18.548 32.5863 18.456 33.0343 18.456C33.9943 18.456 34.7543 18.82 35.3143 19.548C35.8743 20.268 36.1543 21.352 36.1543 22.8C36.1543 23.52 36.0743 24.152 35.9143 24.696C35.7623 25.232 35.5423 25.684 35.2543 26.052C34.9743 26.412 34.6383 26.684 34.2463 26.868C33.8543 27.052 33.4263 27.144 32.9623 27.144C32.4743 27.144 32.0423 27.048 31.6663 26.856C31.2903 26.656 30.9703 26.372 30.7063 26.004C30.4503 25.628 30.2543 25.172 30.1183 24.636C29.9903 24.1 29.9263 23.488 29.9263 22.8ZM31.7263 22.8C31.7263 23.376 31.7423 23.892 31.7743 24.348C31.8143 24.804 31.8823 25.192 31.9783 25.512C32.0743 25.824 32.1983 26.064 32.3503 26.232C32.5103 26.4 32.7103 26.484 32.9503 26.484C33.2303 26.484 33.4583 26.416 33.6343 26.28C33.8183 26.144 33.9623 25.928 34.0663 25.632C34.1783 25.336 34.2543 24.956 34.2943 24.492C34.3343 24.028 34.3543 23.464 34.3543 22.8C34.3543 22.224 34.3383 21.708 34.3063 21.252C34.2743 20.796 34.2103 20.412 34.1143 20.1C34.0263 19.78 33.8943 19.536 33.7183 19.368C33.5503 19.2 33.3223 19.116 33.0343 19.116C32.7783 19.116 32.5663 19.184 32.3983 19.32C32.2303 19.456 32.0943 19.672 31.9903 19.968C31.8943 20.264 31.8263 20.648 31.7863 21.12C31.7463 21.584 31.7263 22.144 31.7263 22.8Z" fill="#CE1E1E"/>
<circle cx="37.5" cy="16.5" r="1.5" fill="#CE1E1E"/>
<circle cx="37.5" cy="16.5" r="0.5" fill="#363030"/>
<path d="M13.232 35.406C13.212 35.494 13.176 35.578 13.124 35.658C13.072 35.738 13.01 35.81 12.938 35.874C12.866 35.934 12.784 35.982 12.692 36.018C12.6 36.054 12.502 36.072 12.398 36.072C12.002 36.072 11.7 35.948 11.492 35.7C11.288 35.448 11.186 35.064 11.186 34.548C11.186 34.284 11.222 34.054 11.294 33.858C11.366 33.658 11.466 33.49 11.594 33.354C11.726 33.218 11.884 33.116 12.068 33.048C12.252 32.98 12.456 32.946 12.68 32.946C12.752 32.946 12.812 32.948 12.86 32.952C12.912 32.956 12.958 32.962 12.998 32.97C13.042 32.974 13.082 32.984 13.118 33C13.158 33.012 13.202 33.026 13.25 33.042V31.986L12.794 31.938V31.704C12.85 31.68 12.926 31.658 13.022 31.638C13.122 31.618 13.226 31.6 13.334 31.584C13.442 31.564 13.548 31.546 13.652 31.53C13.756 31.514 13.842 31.5 13.91 31.488H14.114V35.574L14.51 35.622V35.832C14.454 35.86 14.382 35.886 14.294 35.91C14.206 35.934 14.114 35.956 14.018 35.976C13.922 35.996 13.828 36.012 13.736 36.024C13.648 36.04 13.574 36.052 13.514 36.06H13.31L13.256 35.406H13.232ZM12.686 35.592C12.826 35.592 12.944 35.548 13.04 35.46C13.136 35.372 13.206 35.222 13.25 35.01V33.396C13.198 33.364 13.132 33.338 13.052 33.318C12.976 33.298 12.88 33.288 12.764 33.288C12.532 33.288 12.366 33.394 12.266 33.606C12.166 33.814 12.116 34.118 12.116 34.518C12.116 34.842 12.16 35.102 12.248 35.298C12.336 35.494 12.482 35.592 12.686 35.592ZM18.5278 35.496C18.4958 35.564 18.4438 35.634 18.3718 35.706C18.3038 35.774 18.2178 35.836 18.1138 35.892C18.0138 35.944 17.8958 35.986 17.7598 36.018C17.6278 36.054 17.4838 36.072 17.3278 36.072C17.0798 36.072 16.8598 36.036 16.6678 35.964C16.4758 35.888 16.3158 35.782 16.1878 35.646C16.0598 35.506 15.9618 35.34 15.8938 35.148C15.8298 34.956 15.7978 34.74 15.7978 34.5C15.7978 33.988 15.9318 33.598 16.1998 33.33C16.4678 33.062 16.8398 32.928 17.3158 32.928C17.5198 32.928 17.7098 32.956 17.8858 33.012C18.0658 33.068 18.2138 33.16 18.3298 33.288C18.4498 33.416 18.5318 33.584 18.5758 33.792C18.6238 34 18.6218 34.254 18.5698 34.554H16.7278C16.7318 34.87 16.8118 35.122 16.9678 35.31C17.1278 35.498 17.3618 35.592 17.6698 35.592C17.8018 35.592 17.9378 35.572 18.0778 35.532C18.2218 35.492 18.3338 35.44 18.4138 35.376L18.5278 35.496ZM17.2918 33.27C17.2118 33.27 17.1398 33.284 17.0758 33.312C17.0158 33.34 16.9618 33.392 16.9138 33.468C16.8698 33.54 16.8338 33.64 16.8058 33.768C16.7778 33.892 16.7578 34.05 16.7458 34.242H17.7118C17.7398 33.93 17.7218 33.69 17.6578 33.522C17.5938 33.354 17.4718 33.27 17.2918 33.27ZM21.4385 32.928C21.6985 32.928 21.9145 32.956 22.0865 33.012C22.2585 33.064 22.3885 33.13 22.4765 33.21C22.6645 33.006 22.8805 32.864 23.1245 32.784C23.1525 32.804 23.1805 32.834 23.2085 32.874C23.2365 32.91 23.2605 32.95 23.2805 32.994C23.3005 33.038 23.3165 33.082 23.3285 33.126C23.3405 33.17 23.3465 33.206 23.3465 33.234L23.2685 33.378H22.6385C22.6825 33.434 22.7225 33.508 22.7585 33.6C22.7985 33.688 22.8185 33.794 22.8185 33.918C22.8185 34.05 22.7905 34.174 22.7345 34.29C22.6785 34.406 22.5925 34.51 22.4765 34.602C22.3645 34.69 22.2205 34.76 22.0445 34.812C21.8725 34.864 21.6705 34.89 21.4385 34.89C21.3705 34.89 21.3085 34.89 21.2525 34.89C21.2005 34.886 21.1545 34.88 21.1145 34.872C21.0985 34.896 21.0805 34.926 21.0605 34.962C21.0445 34.994 21.0365 35.026 21.0365 35.058C21.0365 35.126 21.0845 35.18 21.1805 35.22C21.2765 35.26 21.3985 35.296 21.5465 35.328C21.6945 35.36 21.8525 35.396 22.0205 35.436C22.1925 35.476 22.3525 35.53 22.5005 35.598C22.6485 35.662 22.7725 35.748 22.8725 35.856C22.9725 35.96 23.0245 36.096 23.0285 36.264C23.0325 36.424 22.9925 36.566 22.9085 36.69C22.8245 36.814 22.7085 36.918 22.5605 37.002C22.4165 37.09 22.2445 37.156 22.0445 37.2C21.8485 37.248 21.6385 37.272 21.4145 37.272C21.1505 37.272 20.9245 37.25 20.7365 37.206C20.5525 37.166 20.4025 37.11 20.2865 37.038C20.1705 36.966 20.0845 36.884 20.0285 36.792C19.9765 36.7 19.9505 36.604 19.9505 36.504C19.9505 36.392 19.9725 36.296 20.0165 36.216C20.0605 36.136 20.1225 36.066 20.2025 36.006C20.2825 35.946 20.3745 35.896 20.4785 35.856C20.5865 35.816 20.7045 35.78 20.8325 35.748C20.7725 35.732 20.7145 35.712 20.6585 35.688C20.6025 35.664 20.5525 35.636 20.5085 35.604C20.4645 35.568 20.4285 35.528 20.4005 35.484C20.3725 35.436 20.3585 35.382 20.3585 35.322C20.3585 35.27 20.3745 35.22 20.4065 35.172C20.4385 35.12 20.4805 35.074 20.5325 35.034C20.5845 34.99 20.6405 34.952 20.7005 34.92C20.7605 34.884 20.8205 34.854 20.8805 34.83C20.6285 34.774 20.4285 34.666 20.2805 34.506C20.1325 34.342 20.0585 34.134 20.0585 33.882C20.0585 33.582 20.1825 33.348 20.4305 33.18C20.6785 33.012 21.0145 32.928 21.4385 32.928ZM22.1945 36.456C22.1945 36.348 22.1605 36.26 22.0925 36.192C22.0285 36.128 21.9445 36.074 21.8405 36.03C21.7365 35.99 21.6185 35.956 21.4865 35.928C21.3585 35.896 21.2305 35.86 21.1025 35.82C20.9985 35.9 20.9245 35.98 20.8805 36.06C20.8365 36.14 20.8145 36.236 20.8145 36.348C20.8145 36.532 20.8765 36.674 21.0005 36.774C21.1285 36.878 21.3065 36.93 21.5345 36.93C21.7585 36.93 21.9245 36.882 22.0325 36.786C22.1405 36.694 22.1945 36.584 22.1945 36.456ZM20.9225 33.912C20.9225 34.12 20.9565 34.278 21.0245 34.386C21.0965 34.494 21.2345 34.548 21.4385 34.548C21.6345 34.548 21.7685 34.494 21.8405 34.386C21.9165 34.274 21.9545 34.116 21.9545 33.912C21.9545 33.696 21.9165 33.536 21.8405 33.432C21.7645 33.324 21.6305 33.27 21.4385 33.27C21.2385 33.27 21.1025 33.322 21.0305 33.426C20.9585 33.53 20.9225 33.692 20.9225 33.912ZM26.0012 33.69C25.9532 33.714 25.8972 33.754 25.8332 33.81C25.7692 33.866 25.7112 33.958 25.6592 34.086V35.622C25.7392 35.63 25.8192 35.646 25.8992 35.67C25.9792 35.69 26.0592 35.722 26.1392 35.766V36H24.3992V35.766C24.4712 35.726 24.5392 35.696 24.6032 35.676C24.6672 35.656 24.7312 35.638 24.7952 35.622V33.426L24.3992 33.378V33.144C24.4632 33.116 24.5412 33.09 24.6332 33.066C24.7292 33.042 24.8272 33.022 24.9272 33.006C25.0272 32.986 25.1232 32.97 25.2152 32.958C25.3112 32.946 25.3912 32.936 25.4552 32.928H25.6592V33.726H25.6832C25.7152 33.638 25.7612 33.546 25.8212 33.45C25.8852 33.354 25.9592 33.266 26.0432 33.186C26.1272 33.106 26.2192 33.042 26.3192 32.994C26.4192 32.946 26.5232 32.924 26.6312 32.928C26.6752 32.984 26.7132 33.064 26.7452 33.168C26.7772 33.268 26.8032 33.364 26.8232 33.456V33.69H26.0012ZM30.7812 35.496C30.7492 35.564 30.6972 35.634 30.6252 35.706C30.5572 35.774 30.4712 35.836 30.3672 35.892C30.2672 35.944 30.1492 35.986 30.0132 36.018C29.8812 36.054 29.7372 36.072 29.5812 36.072C29.3332 36.072 29.1132 36.036 28.9212 35.964C28.7292 35.888 28.5692 35.782 28.4412 35.646C28.3132 35.506 28.2152 35.34 28.1472 35.148C28.0832 34.956 28.0512 34.74 28.0512 34.5C28.0512 33.988 28.1852 33.598 28.4532 33.33C28.7212 33.062 29.0932 32.928 29.5692 32.928C29.7732 32.928 29.9632 32.956 30.1392 33.012C30.3192 33.068 30.4672 33.16 30.5832 33.288C30.7032 33.416 30.7852 33.584 30.8292 33.792C30.8772 34 30.8752 34.254 30.8232 34.554H28.9812C28.9852 34.87 29.0652 35.122 29.2212 35.31C29.3812 35.498 29.6152 35.592 29.9232 35.592C30.0552 35.592 30.1912 35.572 30.3312 35.532C30.4752 35.492 30.5872 35.44 30.6672 35.376L30.7812 35.496ZM29.5452 33.27C29.4652 33.27 29.3932 33.284 29.3292 33.312C29.2692 33.34 29.2152 33.392 29.1672 33.468C29.1232 33.54 29.0872 33.64 29.0592 33.768C29.0312 33.892 29.0112 34.05 28.9992 34.242H29.9652C29.9932 33.93 29.9752 33.69 29.9112 33.522C29.8472 33.354 29.7252 33.27 29.5452 33.27ZM35.0238 35.496C34.9918 35.564 34.9398 35.634 34.8678 35.706C34.7998 35.774 34.7138 35.836 34.6098 35.892C34.5098 35.944 34.3918 35.986 34.2558 36.018C34.1238 36.054 33.9798 36.072 33.8238 36.072C33.5758 36.072 33.3558 36.036 33.1638 35.964C32.9718 35.888 32.8118 35.782 32.6838 35.646C32.5558 35.506 32.4578 35.34 32.3898 35.148C32.3258 34.956 32.2938 34.74 32.2938 34.5C32.2938 33.988 32.4278 33.598 32.6958 33.33C32.9638 33.062 33.3358 32.928 33.8118 32.928C34.0158 32.928 34.2058 32.956 34.3818 33.012C34.5618 33.068 34.7098 33.16 34.8258 33.288C34.9458 33.416 35.0278 33.584 35.0718 33.792C35.1198 34 35.1178 34.254 35.0658 34.554H33.2238C33.2278 34.87 33.3078 35.122 33.4638 35.31C33.6238 35.498 33.8578 35.592 34.1658 35.592C34.2978 35.592 34.4338 35.572 34.5738 35.532C34.7178 35.492 34.8298 35.44 34.9098 35.376L35.0238 35.496ZM33.7878 33.27C33.7078 33.27 33.6358 33.284 33.5718 33.312C33.5118 33.34 33.4578 33.392 33.4098 33.468C33.3658 33.54 33.3298 33.64 33.3018 33.768C33.2738 33.892 33.2538 34.05 33.2418 34.242H34.2078C34.2358 33.93 34.2178 33.69 34.1538 33.522C34.0898 33.354 33.9678 33.27 33.7878 33.27ZM38.0785 35.346C38.0785 35.242 38.0405 35.152 37.9645 35.076C37.8925 35 37.8005 34.93 37.6885 34.866C37.5805 34.802 37.4605 34.738 37.3285 34.674C37.2005 34.61 37.0805 34.536 36.9685 34.452C36.8605 34.364 36.7685 34.262 36.6925 34.146C36.6205 34.03 36.5845 33.888 36.5845 33.72C36.5845 33.6 36.6125 33.492 36.6685 33.396C36.7245 33.296 36.8005 33.212 36.8965 33.144C36.9925 33.076 37.1065 33.024 37.2385 32.988C37.3745 32.948 37.5205 32.928 37.6765 32.928C37.8925 32.928 38.0925 32.946 38.2765 32.982C38.4645 33.014 38.6285 33.06 38.7685 33.12C38.7525 33.248 38.7205 33.386 38.6725 33.534C38.6245 33.678 38.5785 33.81 38.5345 33.93H38.3305L38.0785 33.318C38.0305 33.298 37.9805 33.286 37.9285 33.282C37.8765 33.274 37.8185 33.27 37.7545 33.27C37.6345 33.27 37.5425 33.306 37.4785 33.378C37.4185 33.446 37.3885 33.524 37.3885 33.612C37.3885 33.712 37.4245 33.8 37.4965 33.876C37.5725 33.948 37.6645 34.016 37.7725 34.08C37.8845 34.144 38.0045 34.208 38.1325 34.272C38.2645 34.336 38.3845 34.41 38.4925 34.494C38.6045 34.574 38.6965 34.67 38.7685 34.782C38.8445 34.894 38.8825 35.028 38.8825 35.184C38.8825 35.46 38.7705 35.678 38.5465 35.838C38.3225 35.994 38.0225 36.072 37.6465 36.072C37.4545 36.072 37.2565 36.052 37.0525 36.012C36.8485 35.972 36.6725 35.916 36.5245 35.844C36.5325 35.7 36.5665 35.554 36.6265 35.406C36.6865 35.258 36.7505 35.126 36.8185 35.01H37.0225L37.3165 35.664C37.3605 35.696 37.4085 35.716 37.4605 35.724C37.5165 35.728 37.5685 35.73 37.6165 35.73C37.7325 35.73 37.8385 35.696 37.9345 35.628C38.0305 35.56 38.0785 35.466 38.0785 35.346Z" fill="white"/>
</svg>
